<mxfile host="65bd71144e">
    <diagram id="NpAB2YyB5K4w3Ukpy-gc" name="Page-1">
        <mxGraphModel dx="1346" dy="1222" grid="1" gridSize="10" guides="1" tooltips="1" connect="1" arrows="1" fold="1" page="1" pageScale="1" pageWidth="827" pageHeight="1169" math="0" shadow="0">
            <root>
                <mxCell id="0"/>
                <mxCell id="1" parent="0"/>
                <mxCell id="2" value="" style="whiteSpace=wrap;html=1;aspect=fixed;" parent="1" vertex="1">
                    <mxGeometry x="170" y="80" width="360" height="360" as="geometry"/>
                </mxCell>
                <mxCell id="10" style="edgeStyle=none;html=1;" parent="1" source="3" target="8" edge="1">
                    <mxGeometry relative="1" as="geometry"/>
                </mxCell>
                <mxCell id="16" style="edgeStyle=none;html=1;entryX=0;entryY=0.5;entryDx=0;entryDy=0;" parent="1" source="3" target="15" edge="1">
                    <mxGeometry relative="1" as="geometry"/>
                </mxCell>
                <mxCell id="3" value="Users" style="shape=umlActor;verticalLabelPosition=bottom;verticalAlign=top;html=1;outlineConnect=0;fillColor=#a20025;fontColor=#ffffff;strokeColor=#6F0000;" parent="1" vertex="1">
                    <mxGeometry x="60" y="230" width="30" height="60" as="geometry"/>
                </mxCell>
                <mxCell id="21" value="" style="edgeStyle=none;html=1;" parent="1" source="4" target="20" edge="1">
                    <mxGeometry relative="1" as="geometry"/>
                </mxCell>
                <mxCell id="23" value="" style="edgeStyle=none;html=1;fillColor=#60a917;strokeColor=#2D7600;" parent="1" source="4" edge="1">
                    <mxGeometry relative="1" as="geometry">
                        <mxPoint x="590" y="341.4117647058823" as="targetPoint"/>
                    </mxGeometry>
                </mxCell>
                <mxCell id="27" style="edgeStyle=none;html=1;entryX=0;entryY=0.5;entryDx=0;entryDy=0;entryPerimeter=0;fontSize=16;" parent="1" source="4" target="24" edge="1">
                    <mxGeometry relative="1" as="geometry"/>
                </mxCell>
                <mxCell id="4" value="Login Page" style="whiteSpace=wrap;html=1;verticalAlign=top;" parent="1" vertex="1">
                    <mxGeometry x="380" y="330" width="115" height="30" as="geometry"/>
                </mxCell>
                <mxCell id="6" value="Register Page&lt;br&gt;" style="whiteSpace=wrap;html=1;verticalAlign=top;" parent="1" vertex="1">
                    <mxGeometry x="360" y="140" width="120" height="30" as="geometry"/>
                </mxCell>
                <mxCell id="12" style="edgeStyle=none;html=1;entryX=0;entryY=0.5;entryDx=0;entryDy=0;" parent="1" source="8" target="6" edge="1">
                    <mxGeometry relative="1" as="geometry"/>
                </mxCell>
                <mxCell id="8" value="&lt;br&gt;if&lt;br&gt;not&amp;nbsp;&lt;br&gt;user" style="rhombus;whiteSpace=wrap;html=1;verticalAlign=top;" parent="1" vertex="1">
                    <mxGeometry x="210" y="120" width="80" height="80" as="geometry"/>
                </mxCell>
                <mxCell id="28" style="edgeStyle=none;html=1;fontSize=16;entryX=0;entryY=0.5;entryDx=0;entryDy=0;" parent="1" source="15" target="4" edge="1">
                    <mxGeometry relative="1" as="geometry"/>
                </mxCell>
                <mxCell id="15" value="&lt;br&gt;if &lt;br&gt;user" style="rhombus;whiteSpace=wrap;html=1;verticalAlign=top;" parent="1" vertex="1">
                    <mxGeometry x="210" y="310" width="80" height="80" as="geometry"/>
                </mxCell>
                <mxCell id="29" style="edgeStyle=none;html=1;entryX=0.145;entryY=0;entryDx=0;entryDy=4.35;entryPerimeter=0;fontSize=16;" parent="1" source="20" target="24" edge="1">
                    <mxGeometry relative="1" as="geometry"/>
                </mxCell>
                <mxCell id="20" value="Forgot Password" style="whiteSpace=wrap;html=1;verticalAlign=top;" parent="1" vertex="1">
                    <mxGeometry x="320" y="215" width="120" height="25" as="geometry"/>
                </mxCell>
                <mxCell id="25" style="edgeStyle=none;html=1;entryX=0.927;entryY=-0.013;entryDx=0;entryDy=0;entryPerimeter=0;fontSize=16;fillColor=#f0a30a;strokeColor=#BD7000;" parent="1" source="24" target="4" edge="1">
                    <mxGeometry relative="1" as="geometry"/>
                </mxCell>
                <mxCell id="24" value="Users&lt;br&gt;DB" style="shape=cylinder3;whiteSpace=wrap;html=1;boundedLbl=1;backgroundOutline=1;size=15;fontSize=16;fillColor=#0050ef;fontColor=#ffffff;strokeColor=#001DBC;" parent="1" vertex="1">
                    <mxGeometry x="610" y="130" width="60" height="80" as="geometry"/>
                </mxCell>
                <mxCell id="31" value="#Dashboard" style="swimlane;whiteSpace=wrap;html=1;fontSize=16;fillColor=#60a917;fontColor=#ffffff;strokeColor=#2D7600;" parent="1" vertex="1" collapsed="1">
                    <mxGeometry x="590" y="310" width="150" height="30" as="geometry">
                        <mxRectangle x="590" y="310" width="580" height="600" as="alternateBounds"/>
                    </mxGeometry>
                </mxCell>
                <mxCell id="33" value="&lt;h1&gt;&lt;span style=&quot;background-color: initial;&quot;&gt;Invoice Application&lt;/span&gt;&lt;/h1&gt;&lt;span&gt;Lorem ipsum dolor sit amet, consectetur adipisicing elit, sed do eiusmod tempor incididunt ut labore et dolore magna aliqua.&lt;br&gt;&lt;/span&gt;" style="text;html=1;strokeColor=none;fillColor=none;spacing=5;spacingTop=-20;whiteSpace=wrap;overflow=hidden;rounded=0;fontSize=16;align=center;" parent="31" vertex="1">
                    <mxGeometry x="135" y="40" width="300" height="210" as="geometry"/>
                </mxCell>
                <mxCell id="35" value="Total Amount for Spending this month" style="rounded=1;whiteSpace=wrap;html=1;fontSize=12;" parent="31" vertex="1">
                    <mxGeometry x="20" y="260" width="200" height="140" as="geometry"/>
                </mxCell>
                <mxCell id="36" value="Section for Creating Invoices, Payees" style="rounded=1;whiteSpace=wrap;html=1;fontSize=12;" parent="31" vertex="1">
                    <mxGeometry x="20" y="420" width="200" height="140" as="geometry"/>
                </mxCell>
                <mxCell id="41" value="Data Table for Invoices" style="shape=table;startSize=30;container=1;collapsible=0;childLayout=tableLayout;fontStyle=1;align=center;fontSize=16;" parent="31" vertex="1">
                    <mxGeometry x="290" y="260" width="250" height="300" as="geometry"/>
                </mxCell>
                <mxCell id="42" value="" style="shape=tableRow;horizontal=0;startSize=0;swimlaneHead=0;swimlaneBody=0;top=0;left=0;bottom=0;right=0;collapsible=0;dropTarget=0;fillColor=none;points=[[0,0.5],[1,0.5]];portConstraint=eastwest;fontSize=16;" parent="41" vertex="1">
                    <mxGeometry y="30" width="250" height="90" as="geometry"/>
                </mxCell>
                <mxCell id="43" value="" style="shape=partialRectangle;html=1;whiteSpace=wrap;connectable=0;fillColor=none;top=0;left=0;bottom=0;right=0;overflow=hidden;fontSize=16;" parent="42" vertex="1">
                    <mxGeometry width="83" height="90" as="geometry">
                        <mxRectangle width="83" height="90" as="alternateBounds"/>
                    </mxGeometry>
                </mxCell>
                <mxCell id="44" value="" style="shape=partialRectangle;html=1;whiteSpace=wrap;connectable=0;fillColor=none;top=0;left=0;bottom=0;right=0;overflow=hidden;fontSize=16;" parent="42" vertex="1">
                    <mxGeometry x="83" width="84" height="90" as="geometry">
                        <mxRectangle width="84" height="90" as="alternateBounds"/>
                    </mxGeometry>
                </mxCell>
                <mxCell id="45" value="" style="shape=partialRectangle;html=1;whiteSpace=wrap;connectable=0;fillColor=none;top=0;left=0;bottom=0;right=0;overflow=hidden;fontSize=16;" parent="42" vertex="1">
                    <mxGeometry x="167" width="83" height="90" as="geometry">
                        <mxRectangle width="83" height="90" as="alternateBounds"/>
                    </mxGeometry>
                </mxCell>
                <mxCell id="46" value="" style="shape=tableRow;horizontal=0;startSize=0;swimlaneHead=0;swimlaneBody=0;top=0;left=0;bottom=0;right=0;collapsible=0;dropTarget=0;fillColor=none;points=[[0,0.5],[1,0.5]];portConstraint=eastwest;fontSize=16;" parent="41" vertex="1">
                    <mxGeometry y="120" width="250" height="90" as="geometry"/>
                </mxCell>
                <mxCell id="47" value="" style="shape=partialRectangle;html=1;whiteSpace=wrap;connectable=0;fillColor=none;top=0;left=0;bottom=0;right=0;overflow=hidden;fontSize=16;" parent="46" vertex="1">
                    <mxGeometry width="83" height="90" as="geometry">
                        <mxRectangle width="83" height="90" as="alternateBounds"/>
                    </mxGeometry>
                </mxCell>
                <mxCell id="48" value="" style="shape=partialRectangle;html=1;whiteSpace=wrap;connectable=0;fillColor=none;top=0;left=0;bottom=0;right=0;overflow=hidden;fontSize=16;" parent="46" vertex="1">
                    <mxGeometry x="83" width="84" height="90" as="geometry">
                        <mxRectangle width="84" height="90" as="alternateBounds"/>
                    </mxGeometry>
                </mxCell>
                <mxCell id="49" value="" style="shape=partialRectangle;html=1;whiteSpace=wrap;connectable=0;fillColor=none;top=0;left=0;bottom=0;right=0;overflow=hidden;fontSize=16;" parent="46" vertex="1">
                    <mxGeometry x="167" width="83" height="90" as="geometry">
                        <mxRectangle width="83" height="90" as="alternateBounds"/>
                    </mxGeometry>
                </mxCell>
                <mxCell id="50" value="" style="shape=tableRow;horizontal=0;startSize=0;swimlaneHead=0;swimlaneBody=0;top=0;left=0;bottom=0;right=0;collapsible=0;dropTarget=0;fillColor=none;points=[[0,0.5],[1,0.5]];portConstraint=eastwest;fontSize=16;" parent="41" vertex="1">
                    <mxGeometry y="210" width="250" height="90" as="geometry"/>
                </mxCell>
                <mxCell id="51" value="" style="shape=partialRectangle;html=1;whiteSpace=wrap;connectable=0;fillColor=none;top=0;left=0;bottom=0;right=0;overflow=hidden;fontSize=16;" parent="50" vertex="1">
                    <mxGeometry width="83" height="90" as="geometry">
                        <mxRectangle width="83" height="90" as="alternateBounds"/>
                    </mxGeometry>
                </mxCell>
                <mxCell id="52" value="" style="shape=partialRectangle;html=1;whiteSpace=wrap;connectable=0;fillColor=none;top=0;left=0;bottom=0;right=0;overflow=hidden;fontSize=16;" parent="50" vertex="1">
                    <mxGeometry x="83" width="84" height="90" as="geometry">
                        <mxRectangle width="84" height="90" as="alternateBounds"/>
                    </mxGeometry>
                </mxCell>
                <mxCell id="53" value="" style="shape=partialRectangle;html=1;whiteSpace=wrap;connectable=0;fillColor=none;top=0;left=0;bottom=0;right=0;overflow=hidden;fontSize=16;" parent="50" vertex="1">
                    <mxGeometry x="167" width="83" height="90" as="geometry">
                        <mxRectangle width="83" height="90" as="alternateBounds"/>
                    </mxGeometry>
                </mxCell>
                <mxCell id="54" value="&lt;font style=&quot;font-size: 16px;&quot;&gt;#Create Payee&lt;/font&gt;" style="swimlane;whiteSpace=wrap;html=1;fillColor=#60a917;fontColor=#ffffff;strokeColor=#2D7600;align=center;labelBorderColor=none;startSize=23;" vertex="1" collapsed="1" parent="1">
                    <mxGeometry x="280" y="470" width="180" height="30" as="geometry">
                        <mxRectangle x="280" y="470" width="250" height="260" as="alternateBounds"/>
                    </mxGeometry>
                </mxCell>
                <mxCell id="57" value="Call to Store Payee Data" style="shape=callout;whiteSpace=wrap;html=1;perimeter=calloutPerimeter;fontSize=16;" vertex="1" parent="54">
                    <mxGeometry x="70" y="160" width="110" height="80" as="geometry"/>
                </mxCell>
                <mxCell id="61" style="edgeStyle=none;html=1;fontSize=16;" edge="1" parent="54" source="60" target="57">
                    <mxGeometry relative="1" as="geometry"/>
                </mxCell>
                <mxCell id="60" value="&lt;blockquote style=&quot;margin: 0 0 0 40px; border: none; padding: 0px;&quot;&gt;&lt;span style=&quot;font-size: 12px;&quot;&gt;Payee Name``&lt;/span&gt;&lt;/blockquote&gt;&lt;blockquote style=&quot;margin: 0 0 0 40px; border: none; padding: 0px;&quot;&gt;&lt;span style=&quot;font-size: 12px;&quot;&gt;Payee ContactNo&lt;br&gt;&lt;/span&gt;&lt;span style=&quot;font-size: 12px;&quot;&gt;Payee Address``&lt;/span&gt;&lt;/blockquote&gt;" style="shape=dataStorage;whiteSpace=wrap;html=1;fixedSize=1;fontSize=16;align=left;horizontal=1;verticalAlign=middle;labelBorderColor=none;fontColor=default;labelBackgroundColor=none;" vertex="1" parent="54">
                    <mxGeometry x="35" y="40" width="180" height="80" as="geometry"/>
                </mxCell>
                <mxCell id="81" style="edgeStyle=none;html=1;fontSize=16;fontColor=default;fillColor=#f0a30a;strokeColor=#BD7000;" edge="1" parent="1" source="56" target="69">
                    <mxGeometry relative="1" as="geometry"/>
                </mxCell>
                <mxCell id="56" value="&lt;font style=&quot;font-size: 16px;&quot;&gt;Payee DB&lt;/font&gt;" style="shape=cylinder3;whiteSpace=wrap;html=1;boundedLbl=1;backgroundOutline=1;size=15;fillColor=#0050ef;fontColor=#ffffff;strokeColor=#001DBC;" vertex="1" parent="1">
                    <mxGeometry x="110" y="545" width="60" height="80" as="geometry"/>
                </mxCell>
                <mxCell id="59" style="edgeStyle=none;html=1;entryX=1;entryY=0.5;entryDx=0;entryDy=0;entryPerimeter=0;fontSize=16;" edge="1" parent="1" source="57" target="56">
                    <mxGeometry relative="1" as="geometry"/>
                </mxCell>
                <mxCell id="69" value="&lt;font style=&quot;font-size: 16px;&quot;&gt;#Create New Invoice&lt;/font&gt;" style="swimlane;whiteSpace=wrap;html=1;fillColor=#60a917;fontColor=#ffffff;strokeColor=#2D7600;align=center;labelBorderColor=none;startSize=23;" vertex="1" collapsed="1" parent="1">
                    <mxGeometry x="280" y="700" width="180" height="30" as="geometry">
                        <mxRectangle x="280" y="700" width="320" height="375" as="alternateBounds"/>
                    </mxGeometry>
                </mxCell>
                <mxCell id="70" value="Call to Create New Invoice" style="shape=callout;whiteSpace=wrap;html=1;perimeter=calloutPerimeter;fontSize=16;" vertex="1" parent="69">
                    <mxGeometry x="95" y="285" width="110" height="80" as="geometry"/>
                </mxCell>
                <mxCell id="71" style="edgeStyle=none;html=1;fontSize=16;" edge="1" parent="69" source="72" target="70">
                    <mxGeometry relative="1" as="geometry"/>
                </mxCell>
                <mxCell id="72" value="&lt;blockquote style=&quot;margin: 0 0 0 40px; border: none; padding: 0px;&quot;&gt;&lt;span style=&quot;font-size: 12px;&quot;&gt;Payment Mode``&lt;/span&gt;&lt;/blockquote&gt;&lt;blockquote style=&quot;margin: 0 0 0 40px; border: none; padding: 0px;&quot;&gt;&lt;span style=&quot;font-size: 12px;&quot;&gt;Payment To``&lt;/span&gt;&lt;/blockquote&gt;&lt;blockquote style=&quot;margin: 0 0 0 40px; border: none; padding: 0px;&quot;&gt;&lt;span style=&quot;font-size: 12px;&quot;&gt;Item List []&lt;/span&gt;&lt;/blockquote&gt;&lt;blockquote style=&quot;margin: 0 0 0 40px; border: none; padding: 0px;&quot;&gt;&lt;span style=&quot;font-size: 12px;&quot;&gt;Total List Amount&lt;/span&gt;&lt;/blockquote&gt;" style="shape=dataStorage;whiteSpace=wrap;html=1;fixedSize=1;fontSize=16;align=left;horizontal=1;verticalAlign=middle;labelBorderColor=none;fontColor=default;labelBackgroundColor=none;" vertex="1" parent="69">
                    <mxGeometry x="60" y="170" width="180" height="80" as="geometry"/>
                </mxCell>
                <mxCell id="80" style="edgeStyle=none;html=1;fontSize=16;fontColor=default;" edge="1" parent="69" source="79" target="72">
                    <mxGeometry relative="1" as="geometry"/>
                </mxCell>
                <mxCell id="79" value="&lt;blockquote style=&quot;margin: 0 0 0 40px; border: none; padding: 0px;&quot;&gt;&lt;span style=&quot;font-size: 12px;&quot;&gt;ItemList [{&lt;/span&gt;&lt;/blockquote&gt;&lt;blockquote style=&quot;margin: 0 0 0 40px; border: none; padding: 0px;&quot;&gt;&lt;span style=&quot;font-size: 12px;&quot;&gt;Particulars``&lt;/span&gt;&lt;/blockquote&gt;&lt;blockquote style=&quot;margin: 0 0 0 40px; border: none; padding: 0px;&quot;&gt;&lt;span style=&quot;font-size: 12px;&quot;&gt;Quantity&lt;br&gt;Price Per&lt;br&gt;total Price }]&lt;/span&gt;&lt;/blockquote&gt;" style="shape=dataStorage;whiteSpace=wrap;html=1;fixedSize=1;fontSize=16;align=left;horizontal=1;verticalAlign=middle;labelBorderColor=none;fontColor=default;labelBackgroundColor=none;" vertex="1" parent="69">
                    <mxGeometry x="60" y="35" width="180" height="115" as="geometry"/>
                </mxCell>
                <mxCell id="83" style="edgeStyle=none;html=1;fontSize=16;fontColor=default;fillColor=#f0a30a;strokeColor=#BD7000;" edge="1" parent="1" source="73" target="82">
                    <mxGeometry relative="1" as="geometry"/>
                </mxCell>
                <mxCell id="73" value="&lt;font style=&quot;font-size: 16px;&quot;&gt;Invoices DB&lt;/font&gt;" style="shape=cylinder3;whiteSpace=wrap;html=1;boundedLbl=1;backgroundOutline=1;size=15;fillColor=#0050ef;fontColor=#ffffff;strokeColor=#001DBC;" vertex="1" parent="1">
                    <mxGeometry x="110" y="872.5" width="60" height="80" as="geometry"/>
                </mxCell>
                <mxCell id="74" style="edgeStyle=none;html=1;entryX=1;entryY=0;entryDx=0;entryDy=52.5;entryPerimeter=0;fontSize=16;fontColor=default;" edge="1" parent="1" source="70" target="73">
                    <mxGeometry relative="1" as="geometry"/>
                </mxCell>
                <mxCell id="111" style="edgeStyle=none;html=1;fontSize=16;fontColor=#3333FF;" edge="1" parent="1" source="82" target="109">
                    <mxGeometry relative="1" as="geometry"/>
                </mxCell>
                <mxCell id="82" value="#Invoices List to Print" style="swimlane;whiteSpace=wrap;html=1;labelBackgroundColor=none;labelBorderColor=none;fontSize=16;fontColor=#ffffff;fillColor=#60a917;strokeColor=#2D7600;" vertex="1" collapsed="1" parent="1">
                    <mxGeometry x="280" y="1100" width="210" height="30" as="geometry">
                        <mxRectangle x="280" y="1100" width="330" height="260" as="alternateBounds"/>
                    </mxGeometry>
                </mxCell>
                <mxCell id="86" value="Assets" style="childLayout=tableLayout;recursiveResize=0;strokeColor=#98bf21;fillColor=#A7C942;shadow=1;labelBackgroundColor=none;labelBorderColor=none;fontSize=16;fontColor=default;" vertex="1" parent="82">
                    <mxGeometry x="17.5" y="70" width="280" height="160" as="geometry"/>
                </mxCell>
                <mxCell id="87" style="shape=tableRow;horizontal=0;startSize=0;swimlaneHead=0;swimlaneBody=0;top=0;left=0;bottom=0;right=0;dropTarget=0;collapsible=0;recursiveResize=0;expand=0;fontStyle=0;strokeColor=inherit;fillColor=#ffffff;labelBackgroundColor=none;labelBorderColor=none;fontSize=16;fontColor=default;" vertex="1" parent="86">
                    <mxGeometry width="280" height="33" as="geometry"/>
                </mxCell>
                <mxCell id="88" value="Invoice No" style="connectable=0;recursiveResize=0;strokeColor=inherit;fillColor=#A7C942;align=center;fontStyle=1;fontColor=#FFFFFF;html=1;labelBackgroundColor=none;labelBorderColor=none;fontSize=16;" vertex="1" parent="87">
                    <mxGeometry width="93" height="33" as="geometry">
                        <mxRectangle width="93" height="33" as="alternateBounds"/>
                    </mxGeometry>
                </mxCell>
                <mxCell id="89" value="datas...." style="connectable=0;recursiveResize=0;strokeColor=inherit;fillColor=#A7C942;align=center;fontStyle=1;fontColor=#FFFFFF;html=1;labelBackgroundColor=none;labelBorderColor=none;fontSize=16;" vertex="1" parent="87">
                    <mxGeometry x="93" width="94" height="33" as="geometry">
                        <mxRectangle width="94" height="33" as="alternateBounds"/>
                    </mxGeometry>
                </mxCell>
                <mxCell id="90" value="Actions" style="connectable=0;recursiveResize=0;strokeColor=inherit;fillColor=#A7C942;align=center;fontStyle=1;fontColor=#FFFFFF;html=1;labelBackgroundColor=none;labelBorderColor=none;fontSize=16;" vertex="1" parent="87">
                    <mxGeometry x="187" width="93" height="33" as="geometry">
                        <mxRectangle width="93" height="33" as="alternateBounds"/>
                    </mxGeometry>
                </mxCell>
                <mxCell id="91" value="" style="shape=tableRow;horizontal=0;startSize=0;swimlaneHead=0;swimlaneBody=0;top=0;left=0;bottom=0;right=0;dropTarget=0;collapsible=0;recursiveResize=0;expand=0;fontStyle=0;strokeColor=inherit;fillColor=#ffffff;labelBackgroundColor=none;labelBorderColor=none;fontSize=16;fontColor=default;" vertex="1" parent="86">
                    <mxGeometry y="33" width="280" height="32" as="geometry"/>
                </mxCell>
                <mxCell id="92" value="Value 1" style="connectable=0;recursiveResize=0;strokeColor=inherit;fillColor=inherit;align=center;whiteSpace=wrap;html=1;labelBackgroundColor=none;labelBorderColor=none;fontSize=16;fontColor=default;" vertex="1" parent="91">
                    <mxGeometry width="93" height="32" as="geometry">
                        <mxRectangle width="93" height="32" as="alternateBounds"/>
                    </mxGeometry>
                </mxCell>
                <mxCell id="93" value="Value 2" style="connectable=0;recursiveResize=0;strokeColor=inherit;fillColor=inherit;align=center;whiteSpace=wrap;html=1;labelBackgroundColor=none;labelBorderColor=none;fontSize=16;fontColor=default;" vertex="1" parent="91">
                    <mxGeometry x="93" width="94" height="32" as="geometry">
                        <mxRectangle width="94" height="32" as="alternateBounds"/>
                    </mxGeometry>
                </mxCell>
                <mxCell id="94" value="&lt;font color=&quot;#3333ff&quot;&gt;Print&lt;/font&gt;" style="connectable=0;recursiveResize=0;strokeColor=inherit;fillColor=inherit;align=center;whiteSpace=wrap;html=1;labelBackgroundColor=none;labelBorderColor=none;fontSize=16;fontColor=default;" vertex="1" parent="91">
                    <mxGeometry x="187" width="93" height="32" as="geometry">
                        <mxRectangle width="93" height="32" as="alternateBounds"/>
                    </mxGeometry>
                </mxCell>
                <mxCell id="95" value="" style="shape=tableRow;horizontal=0;startSize=0;swimlaneHead=0;swimlaneBody=0;top=0;left=0;bottom=0;right=0;dropTarget=0;collapsible=0;recursiveResize=0;expand=0;fontStyle=1;strokeColor=inherit;fillColor=#EAF2D3;labelBackgroundColor=none;labelBorderColor=none;fontSize=16;fontColor=default;" vertex="1" parent="86">
                    <mxGeometry y="65" width="280" height="31" as="geometry"/>
                </mxCell>
                <mxCell id="96" value="Value 4" style="connectable=0;recursiveResize=0;strokeColor=inherit;fillColor=inherit;whiteSpace=wrap;html=1;labelBackgroundColor=none;labelBorderColor=none;fontSize=16;fontColor=default;" vertex="1" parent="95">
                    <mxGeometry width="93" height="31" as="geometry">
                        <mxRectangle width="93" height="31" as="alternateBounds"/>
                    </mxGeometry>
                </mxCell>
                <mxCell id="97" value="Value 5" style="connectable=0;recursiveResize=0;strokeColor=inherit;fillColor=inherit;whiteSpace=wrap;html=1;labelBackgroundColor=none;labelBorderColor=none;fontSize=16;fontColor=default;" vertex="1" parent="95">
                    <mxGeometry x="93" width="94" height="31" as="geometry">
                        <mxRectangle width="94" height="31" as="alternateBounds"/>
                    </mxGeometry>
                </mxCell>
                <mxCell id="98" value="Value 6" style="connectable=0;recursiveResize=0;strokeColor=inherit;fillColor=inherit;whiteSpace=wrap;html=1;labelBackgroundColor=none;labelBorderColor=none;fontSize=16;fontColor=default;" vertex="1" parent="95">
                    <mxGeometry x="187" width="93" height="31" as="geometry">
                        <mxRectangle width="93" height="31" as="alternateBounds"/>
                    </mxGeometry>
                </mxCell>
                <mxCell id="99" value="" style="shape=tableRow;horizontal=0;startSize=0;swimlaneHead=0;swimlaneBody=0;top=0;left=0;bottom=0;right=0;dropTarget=0;collapsible=0;recursiveResize=0;expand=0;fontStyle=0;strokeColor=inherit;fillColor=#ffffff;labelBackgroundColor=none;labelBorderColor=none;fontSize=16;fontColor=default;" vertex="1" parent="86">
                    <mxGeometry y="96" width="280" height="33" as="geometry"/>
                </mxCell>
                <mxCell id="100" value="Value 7" style="connectable=0;recursiveResize=0;strokeColor=inherit;fillColor=inherit;fontStyle=0;align=center;whiteSpace=wrap;html=1;labelBackgroundColor=none;labelBorderColor=none;fontSize=16;fontColor=default;" vertex="1" parent="99">
                    <mxGeometry width="93" height="33" as="geometry">
                        <mxRectangle width="93" height="33" as="alternateBounds"/>
                    </mxGeometry>
                </mxCell>
                <mxCell id="101" value="Value 8" style="connectable=0;recursiveResize=0;strokeColor=inherit;fillColor=inherit;fontStyle=0;align=center;whiteSpace=wrap;html=1;labelBackgroundColor=none;labelBorderColor=none;fontSize=16;fontColor=default;" vertex="1" parent="99">
                    <mxGeometry x="93" width="94" height="33" as="geometry">
                        <mxRectangle width="94" height="33" as="alternateBounds"/>
                    </mxGeometry>
                </mxCell>
                <mxCell id="102" value="Value 9" style="connectable=0;recursiveResize=0;strokeColor=inherit;fillColor=inherit;fontStyle=0;align=center;whiteSpace=wrap;html=1;labelBackgroundColor=none;labelBorderColor=none;fontSize=16;fontColor=default;" vertex="1" parent="99">
                    <mxGeometry x="187" width="93" height="33" as="geometry">
                        <mxRectangle width="93" height="33" as="alternateBounds"/>
                    </mxGeometry>
                </mxCell>
                <mxCell id="103" value="" style="shape=tableRow;horizontal=0;startSize=0;swimlaneHead=0;swimlaneBody=0;top=0;left=0;bottom=0;right=0;dropTarget=0;collapsible=0;recursiveResize=0;expand=0;fontStyle=1;strokeColor=inherit;fillColor=#EAF2D3;labelBackgroundColor=none;labelBorderColor=none;fontSize=16;fontColor=default;" vertex="1" parent="86">
                    <mxGeometry y="129" width="280" height="31" as="geometry"/>
                </mxCell>
                <mxCell id="104" value="Value 10" style="connectable=0;recursiveResize=0;strokeColor=inherit;fillColor=inherit;whiteSpace=wrap;html=1;labelBackgroundColor=none;labelBorderColor=none;fontSize=16;fontColor=default;" vertex="1" parent="103">
                    <mxGeometry width="93" height="31" as="geometry">
                        <mxRectangle width="93" height="31" as="alternateBounds"/>
                    </mxGeometry>
                </mxCell>
                <mxCell id="105" value="Value 11" style="connectable=0;recursiveResize=0;strokeColor=inherit;fillColor=inherit;whiteSpace=wrap;html=1;labelBackgroundColor=none;labelBorderColor=none;fontSize=16;fontColor=default;" vertex="1" parent="103">
                    <mxGeometry x="93" width="94" height="31" as="geometry">
                        <mxRectangle width="94" height="31" as="alternateBounds"/>
                    </mxGeometry>
                </mxCell>
                <mxCell id="106" value="Value 12" style="connectable=0;recursiveResize=0;strokeColor=inherit;fillColor=inherit;whiteSpace=wrap;html=1;labelBackgroundColor=none;labelBorderColor=none;fontSize=16;fontColor=default;" vertex="1" parent="103">
                    <mxGeometry x="187" width="93" height="31" as="geometry">
                        <mxRectangle width="93" height="31" as="alternateBounds"/>
                    </mxGeometry>
                </mxCell>
                <mxCell id="108" value="#Print View" style="swimlane;whiteSpace=wrap;html=1;labelBackgroundColor=none;labelBorderColor=none;fontSize=16;fontColor=#ffffff;fillColor=#60a917;strokeColor=#2D7600;" vertex="1" collapsed="1" parent="1">
                    <mxGeometry x="670" y="1100" width="130" height="30" as="geometry">
                        <mxRectangle x="740" y="1105" width="260" height="250" as="alternateBounds"/>
                    </mxGeometry>
                </mxCell>
                <mxCell id="109" value="" style="whiteSpace=wrap;html=1;aspect=fixed;labelBackgroundColor=none;labelBorderColor=none;fontSize=16;fontColor=#333333;fillColor=#f5f5f5;strokeColor=#666666;" vertex="1" parent="108">
                    <mxGeometry x="30" y="40" width="200" height="200" as="geometry"/>
                </mxCell>
                <mxCell id="113" value="Invoices" style="text;html=1;strokeColor=none;fillColor=none;align=center;verticalAlign=middle;whiteSpace=wrap;rounded=0;labelBackgroundColor=none;labelBorderColor=none;fontSize=16;fontColor=#3333FF;" vertex="1" parent="108">
                    <mxGeometry x="90" y="55" width="60" height="30" as="geometry"/>
                </mxCell>
                <mxCell id="112" value="Data's" style="text;html=1;strokeColor=none;fillColor=none;align=center;verticalAlign=middle;whiteSpace=wrap;rounded=0;labelBackgroundColor=none;labelBorderColor=none;fontSize=16;fontColor=#3333FF;" vertex="1" parent="108">
                    <mxGeometry x="50" y="105" width="60" height="30" as="geometry"/>
                </mxCell>
            </root>
        </mxGraphModel>
    </diagram>
</mxfile>